<?xml version="1.0" standalone="no"?>
<!DOCTYPE svg PUBLIC "-//W3C//DTD SVG 20010904//EN"
 "http://www.w3.org/TR/2001/REC-SVG-20010904/DTD/svg10.dtd">
<svg version="1.0" xmlns="http://www.w3.org/2000/svg"
 width="360.000000pt" height="360.000000pt" viewBox="0 0 360.000000 360.000000"
 preserveAspectRatio="xMidYMid meet">
<metadata>
Created by potrace 1.14, written by Peter Selinger 2001-2017
</metadata>
<g transform="translate(0.000000,360.000000) scale(0.100000,-0.100000)"
fill="#000000" stroke="none">
<path d="M1590 3589 c-631 -73 -1199 -497 -1444 -1079 -91 -215 -134 -406
-143 -640 -20 -513 167 -986 536 -1350 139 -137 262 -227 431 -314 233 -119
435 -177 691 -199 315 -26 625 33 914 172 506 243 856 683 981 1231 72 316 48
700 -63 1000 -49 133 -151 328 -231 440 -83 117 -269 307 -382 390 -379 278
-834 401 -1290 349z m-97 -685 c50 -17 103 -68 113 -109 3 -14 0 -45 -8 -70
-8 -24 -11 -49 -7 -56 12 -20 55 4 79 43 20 32 21 39 8 137 -5 36 37 62 104
63 54 1 144 -18 153 -32 3 -5 -2 -21 -10 -36 -32 -61 -6 -150 51 -176 36 -17
46 3 27 52 -30 76 13 152 106 185 90 31 170 15 229 -47 l33 -35 -60 -7 c-69
-8 -171 -55 -201 -93 -44 -56 -3 -66 112 -27 109 36 177 31 281 -21 123 -60
196 -148 180 -217 -19 -86 -21 -88 -75 -88 -28 0 -111 -13 -185 -30 -161 -36
-229 -39 -267 -9 -36 28 -36 85 -1 127 42 50 94 65 247 70 141 4 156 9 142 47
-16 40 -207 59 -312 31 -122 -33 -183 -93 -190 -187 -5 -73 11 -120 53 -158
69 -60 165 -64 354 -16 129 32 206 34 265 5 90 -43 132 -159 84 -230 -52 -76
-116 -100 -269 -100 -169 0 -264 -25 -332 -89 -42 -39 -60 -79 -60 -138 0
-148 150 -261 253 -191 19 13 36 33 38 45 3 18 -3 21 -53 25 -46 4 -62 10 -86
35 -61 60 -43 149 37 188 33 16 62 19 178 18 132 -1 141 -2 158 -23 11 -14 18
-39 18 -68 0 -40 -5 -50 -41 -84 -33 -31 -40 -44 -35 -64 9 -36 51 -29 103 19
21 19 23 19 48 3 37 -24 83 -101 90 -151 15 -97 -62 -181 -190 -206 -58 -11
-110 6 -173 57 -43 35 -57 42 -68 33 -39 -32 1 -112 76 -153 82 -44 171 -44
278 0 8 4 12 -7 12 -41 0 -88 -46 -110 -265 -126 -213 -15 -290 -26 -334 -48
-82 -42 -118 -133 -67 -166 37 -24 88 -29 111 -10 20 15 20 16 -2 31 -69 49
12 85 226 99 l104 7 -17 -23 c-28 -41 -119 -130 -164 -161 -126 -87 -263 -73
-360 37 -49 56 -66 115 -52 181 20 88 70 161 138 201 38 23 61 28 146 32 87 5
101 8 104 24 9 44 -87 94 -159 83 -45 -7 -108 -36 -155 -72 -61 -45 -120 -1
-110 84 11 85 61 151 144 187 31 14 52 30 52 40 0 8 -21 30 -47 48 -116 80
-140 113 -149 206 -12 109 16 170 93 206 60 29 98 35 283 44 202 10 275 28
300 73 13 25 13 29 0 43 -14 13 -20 13 -57 -6 -35 -17 -69 -21 -223 -27 -199
-8 -221 -4 -273 46 -78 73 -109 241 -63 330 8 16 33 41 55 55 48 32 52 50 12
67 -24 10 -35 9 -66 -6 -109 -51 -138 -244 -60 -401 19 -39 49 -83 65 -96 l30
-25 -45 -22 c-55 -27 -111 -87 -124 -137 -30 -107 0 -273 63 -357 l34 -44 -28
-27 c-46 -44 -84 -131 -88 -203 -5 -78 16 -133 64 -163 l33 -20 -26 -56 c-37
-80 -42 -178 -14 -258 l20 -60 -25 -22 c-32 -29 -94 -31 -139 -3 -43 27 -48
43 -30 96 26 76 14 188 -28 270 -15 30 -15 30 20 58 49 39 66 87 61 161 -6 67
-40 143 -88 199 l-31 34 31 34 c45 49 72 129 78 229 7 142 -29 215 -136 268
l-43 22 29 24 c66 56 119 205 109 312 -12 128 -99 224 -173 191 -35 -16 -30
-33 20 -67 54 -37 71 -77 70 -161 -1 -115 -52 -218 -127 -257 -59 -30 -429
-12 -468 23 -18 17 -21 17 -37 1 -15 -16 -15 -20 -2 -45 27 -46 92 -62 294
-72 109 -6 200 -16 235 -26 131 -37 172 -114 140 -264 -13 -61 -45 -102 -119
-148 -89 -57 -91 -72 -15 -108 69 -33 110 -79 130 -146 22 -74 12 -116 -32
-134 -31 -14 -36 -13 -66 10 -66 49 -119 70 -183 70 -52 1 -66 -3 -98 -27 -26
-20 -36 -35 -34 -50 3 -20 11 -22 98 -28 111 -7 151 -22 203 -75 52 -54 81
-117 85 -190 5 -74 -18 -125 -79 -178 -84 -72 -188 -83 -293 -32 -54 26 -183
144 -207 187 -11 21 -11 21 93 14 157 -10 248 -33 248 -62 0 -8 -10 -23 -22
-34 -23 -19 -23 -19 -4 -34 25 -19 47 -19 91 -1 70 29 52 115 -35 168 -51 31
-109 41 -345 57 -217 15 -265 38 -265 124 l0 45 63 -20 c81 -26 157 -20 226
17 28 16 58 39 67 52 23 36 29 86 11 101 -12 10 -25 4 -72 -33 -72 -55 -110
-67 -179 -54 -105 19 -186 100 -186 184 1 57 55 151 103 176 14 8 25 4 48 -15
39 -33 78 -44 90 -25 15 24 10 34 -31 77 -35 35 -40 46 -40 85 0 28 7 53 18
67 17 21 26 23 159 23 120 0 145 -2 178 -19 123 -64 77 -224 -63 -224 -52 0
-60 -21 -21 -55 80 -67 189 -33 244 75 34 67 35 153 2 201 -26 40 -103 94
-155 110 -20 6 -109 14 -197 18 -176 8 -210 18 -269 80 -66 69 -37 191 59 246
58 35 137 35 270 0 230 -60 347 -39 396 69 40 87 14 191 -59 241 -57 39 -153
65 -241 65 -86 0 -176 -22 -185 -45 -14 -38 1 -43 142 -47 153 -5 205 -20 247
-70 33 -39 34 -90 0 -123 -33 -34 -99 -33 -270 5 -74 17 -157 30 -185 30 l-49
0 -16 55 c-14 45 -14 62 -4 92 28 86 191 191 312 200 53 5 79 1 141 -21 115
-39 154 -33 120 19 -32 49 -158 105 -237 105 l-28 0 20 29 c46 64 149 87 244
55z m-656 -1058 c40 -18 41 -19 27 -41 -8 -12 -17 -46 -21 -74 -3 -30 -11 -51
-18 -51 -7 0 -33 -16 -58 -35 -44 -34 -47 -34 -57 -16 -13 25 -13 95 0 143 11
37 64 103 77 96 5 -3 27 -13 50 -22z m2002 3 c53 -49 80 -179 47 -224 -13 -18
-14 -17 -42 9 -16 15 -42 34 -58 41 -23 10 -29 19 -31 53 -2 22 -10 53 -17 69
-14 27 -13 28 26 49 52 28 48 28 75 3z"/>
</g>
</svg>
